<?xml version="1.0" encoding="UTF-8"?>
<svg id="Capa_1" data-name="Capa 1" xmlns="http://www.w3.org/2000/svg" viewBox="0 0 1080 1080">
  <defs>
    <style>
      .cls-1 {
        fill: #48a3ae;
      }

      .cls-1, .cls-2 {
        stroke-width: 0px;
      }

      .cls-2 {
        fill: #fdfae3;
      }
    </style>
  </defs>
  <circle class="cls-1" cx="540" cy="540" r="489.55"/>
  <g>
    <g>
      <path class="cls-2" d="m300.83,328.72h-6.38c-1.08,0-1.95.88-1.95,1.95v32.6c0,1.08.87,1.95,1.95,1.95h6.38c1.08,0,1.95.88,1.95,1.95v4.23c0,1.08-.88,1.95-1.95,1.95h-6.38c-1.08,0-1.95.88-1.95,1.95v32.65c0,1.08.87,1.95,1.95,1.95h6.38c1.08,0,1.95.88,1.95,1.95v4.23c0,1.08-.88,1.95-1.95,1.95h-16.66c-1.08,0-1.95-.88-1.95-1.95v-93.54c0-1.08.88-1.95,1.95-1.95h16.66c1.08,0,1.95.88,1.95,1.95v4.23c0,1.08-.88,1.95-1.95,1.95Z"/>
      <path class="cls-2" d="m385.63,353.07h-6.38c-1.08,0-1.95-.88-1.95-1.95v-17.38c0-2.77-2.25-5.02-5.02-5.02h-.25c-2.77,0-5.02,2.25-5.02,5.02v2.2c0,3.34.6,6.67,1.78,9.8l17.01,45.29c1.18,3.13,1.78,6.45,1.78,9.8v3.28c0,7.7-6.24,13.93-13.93,13.93h-2.99c-7.7,0-13.93-6.24-13.93-13.93v-16.6c0-1.08.88-1.95,1.95-1.95h6.38c1.08,0,1.95.88,1.95,1.95v17.38c0,2.77,2.25,5.02,5.02,5.02h.25c2.77,0,5.02-2.25,5.02-5.02v-2.2c0-3.35-.6-6.67-1.78-9.8l-17.01-45.29c-1.18-3.13-1.78-6.45-1.78-9.8v-3.28c0-7.7,6.24-13.93,13.93-13.93h2.99c7.7,0,13.93,6.24,13.93,13.93v16.6c0,1.08-.88,1.95-1.95,1.95Z"/>
      <path class="cls-2" d="m473.4,334.52v69.58c0,5.94-3.73,10.96-8.97,12.96-.77.3-1.32.98-1.32,1.81v5.35c0,1.08-.88,1.95-1.95,1.95h-6.39c-1.08,0-1.95-.88-1.95-1.95v-5.35c0-.82-.54-1.52-1.32-1.81-5.23-2-8.97-7.02-8.97-12.96v-69.58c0-7.7,6.24-13.93,13.93-13.93h2.99c7.7,0,13.93,6.24,13.93,13.93Zm-10.28-.79c0-2.77-2.25-5.02-5.02-5.02h-.26c-2.77,0-5.02,2.25-5.02,5.02v71.15c0,2.77,2.25,5.02,5.02,5.02h.26c2.77,0,5.02-2.25,5.02-5.02v-71.15Z"/>
      <path class="cls-2" d="m550.89,320.59h6.38c1.08,0,1.95.88,1.95,1.95v81.56c0,7.7-6.24,13.93-13.93,13.93h-2.99c-7.7,0-13.93-6.24-13.93-13.93v-81.56c0-1.08.88-1.95,1.95-1.95h6.38c1.08,0,1.95.88,1.95,1.95v82.34c0,2.77,2.25,5.02,5.02,5.02h.26c2.77,0,5.02-2.25,5.02-5.02v-82.34c0-1.08.88-1.95,1.95-1.95Z"/>
      <path class="cls-2" d="m616.13,320.59h6.38c1.08,0,1.95.88,1.95,1.95v93.54c0,1.08-.88,1.95-1.95,1.95h-6.38c-1.08,0-1.95-.88-1.95-1.95v-93.54c0-1.08.87-1.95,1.95-1.95Z"/>
      <path class="cls-2" d="m703.12,320.59h5.02c1.08,0,1.95.88,1.95,1.95v93.54c0,1.08-.88,1.95-1.95,1.95h-6.69c-.94,0-1.74-.67-1.92-1.59l-11.99-63.86c-.03-.13-.22-.11-.22.02v63.48c0,1.08-.88,1.95-1.95,1.95h-5.02c-1.08,0-1.95-.88-1.95-1.95v-93.54c0-1.08.88-1.95,1.95-1.95h6.36c.94,0,1.74.67,1.92,1.59l12.32,65.63c.03.13.22.11.22-.02v-65.25c0-1.08.88-1.95,1.95-1.95Z"/>
      <path class="cls-2" d="m797.78,415.91c.1,1.14-.8,2.12-1.94,2.12h-5.47c-1.01,0-1.86-.77-1.95-1.78l-2.54-28.98c-.09-1-.93-1.78-1.95-1.78h-6.18c-1.01,0-1.86.77-1.95,1.78l-2.54,28.98c-.09,1.01-.93,1.78-1.94,1.78h-5.47c-1.15,0-2.05-.98-1.95-2.12l7.94-90.74c.23-2.59,2.4-4.58,4.99-4.58h7.98c2.6,0,4.77,1.99,4.99,4.58l7.95,90.74Zm-12.95-40.67l-3.24-36.99s-.1-1.18-.74-1.18-.74,1.18-.74,1.18l-3.24,36.99c-.1,1.14.8,2.12,1.94,2.12h4.07c1.15,0,2.05-.98,1.95-2.12Z"/>
    </g>
    <g>
      <path class="cls-2" d="m354.34,536.24h-15.82c-2.71,0-4.9-2.2-4.9-4.91v-43.28c0-6.92-5.6-12.52-12.52-12.52h-.61c-6.92,0-12.52,5.6-12.52,12.52v177.35c0,6.92,5.6,12.52,12.52,12.52h.61c6.92,0,12.52-5.6,12.52-12.52v-43.28c0-2.71,2.2-4.9,4.9-4.9h15.82c2.71,0,4.9,2.2,4.9,4.9v41.42c0,19.14-15.52,34.65-34.65,34.65h-7.61c-19.14,0-34.65-15.52-34.65-34.65v-173.62c0-19.14,15.52-34.65,34.65-34.65h7.61c19.13,0,34.65,15.52,34.65,34.65v41.41c0,2.71-2.19,4.91-4.9,4.91Z"/>
      <path class="cls-2" d="m456.66,692.9c.25,2.83-2,5.28-4.85,5.28h-13.63c-2.53,0-4.63-1.93-4.85-4.45l-6.32-72.24c-.22-2.5-2.32-4.43-4.85-4.43h-15.41c-2.53,0-4.63,1.92-4.85,4.43l-6.32,72.24c-.22,2.52-2.32,4.45-4.85,4.45h-13.63c-2.86,0-5.1-2.44-4.85-5.28l19.8-226.21c.57-6.46,5.97-11.42,12.45-11.42h19.89c6.47,0,11.89,4.96,12.45,11.42l19.81,226.21Zm-32.29-101.39l-8.07-92.22s-.25-2.95-1.85-2.95-1.85,2.95-1.85,2.95l-8.07,92.22c-.25,2.83,2,5.28,4.85,5.28h10.14c2.86,0,5.1-2.45,4.85-5.28Z"/>
      <path class="cls-2" d="m537.23,455.27h12.5c2.68,0,4.86,2.18,4.86,4.86v233.17c0,2.68-2.18,4.86-4.86,4.86h-16.67c-2.33,0-4.35-1.67-4.78-3.96l-29.9-159.19c-.07-.33-.56-.28-.56.06v158.24c0,2.68-2.18,4.86-4.86,4.86h-12.5c-2.68,0-4.86-2.18-4.86-4.86v-233.18c0-2.68,2.18-4.86,4.86-4.86h15.85c2.33,0,4.35,1.67,4.78,3.96l30.72,163.61c.07.33.56.28.56-.06v-162.65c0-2.68,2.18-4.86,4.86-4.86Z"/>
      <path class="cls-2" d="m619.46,475.54h-15.91c-2.68,0-4.86,2.18-4.86,4.86v81.26c0,2.68,2.18,4.86,4.86,4.86h15.91c2.68,0,4.86,2.18,4.86,4.86v10.55c0,2.68-2.18,4.86-4.86,4.86h-15.91c-2.68,0-4.86,2.18-4.86,4.86v81.39c0,2.68,2.18,4.86,4.86,4.86h15.91c2.68,0,4.86,2.18,4.86,4.86v10.54c0,2.68-2.18,4.86-4.86,4.86h-41.54c-2.68,0-4.86-2.18-4.86-4.86v-233.18c0-2.68,2.18-4.86,4.86-4.86h41.54c2.68,0,4.86,2.18,4.86,4.86v10.54c0,2.68-2.18,4.86-4.86,4.86Z"/>
      <path class="cls-2" d="m673.6,677.91h15.91c2.68,0,4.86,2.18,4.86,4.86v10.54c0,2.68-2.18,4.86-4.86,4.86h-41.54c-2.68,0-4.86-2.18-4.86-4.86v-233.18c0-2.68,2.18-4.86,4.86-4.86h15.91c2.68,0,4.86,2.18,4.86,4.86v212.91c0,2.7,2.18,4.86,4.86,4.86Z"/>
      <path class="cls-2" d="m797.57,692.9c.25,2.83-2,5.28-4.85,5.28h-13.63c-2.53,0-4.63-1.93-4.85-4.45l-6.32-72.24c-.22-2.5-2.32-4.43-4.85-4.43h-15.41c-2.53,0-4.63,1.92-4.85,4.43l-6.32,72.24c-.22,2.52-2.32,4.45-4.85,4.45h-13.63c-2.86,0-5.1-2.44-4.85-5.28l19.8-226.21c.57-6.46,5.97-11.42,12.45-11.42h19.89c6.47,0,11.89,4.96,12.45,11.42l19.81,226.21Zm-32.29-101.39l-8.07-92.22s-.25-2.95-1.85-2.95-1.85,2.95-1.85,2.95l-8.07,92.22c-.25,2.83,2,5.28,4.85,5.28h10.14c2.86,0,5.1-2.45,4.85-5.28Z"/>
    </g>
    <g>
      <path class="cls-2" d="m721.05,758.86l-6.53,28.55c-.19.83.26,1.68,1.06,1.97l1.68.63c.91.34,1.92-.15,2.22-1.08l8.53-26.97c.24-.75-.07-1.57-.75-1.97l-3.68-2.21c-.99-.6-2.28-.05-2.53,1.08Z"/>
      <path class="cls-2" d="m734.18,840.03c-7.09,11.21-28.52,43.85-36.39,41.42-9.32-2.88-5.08-22.99-3.84-28.08.17-.71.68-1.29,1.37-1.55,5.55-2.04,30.42-12.31,23.09-30.05-6.16-14.92-23.34,8.14-28.22,18.05-1.32,2.69-3.24,5.03-5.62,6.84-7.96,6.05-25.75,19.22-25.94,16.32-1.03-15.68,14.02-89.22,20.3-112.1,4.53-16.49,5.33-25.76,5.42-29.65.03-1.22-.97-2.2-2.19-2.18-2.03.04-5.3.15-9.06.42-5.4.39-18.69,91.06-22.33,116.57-.63,4.39-2.02,8.64-4.11,12.55l-9.67,18.05c-.97,2.08-2.98,3.47-5.26,3.67-4.12.36-10.26.54-11.12-1.43-1.27-2.92,2.34-23.56,4.46-34.82,1.31-6.97-1.75-14.2-7.92-17.69-7.17-4.06-16.5-2.03-32.44,19.89-58.79,80.83-147.58,156.92-194.86,140.07-50.69-18.07-32.18-115.3-32.18-115.3,0,0,21.13-114.18,105.46-157.34,53.91-27.59,37.76,32.12,35.61,39.44-.14.48-.12.99.07,1.45,3.57,8.71,9.73,10.78,13.59,7.72,3.42-2.71,8.07-20.01,9.3-24.75.17-.65.64-1.14,1.25-1.42,1.56-.72,4-3.72-1.48-16.31-22.08-50.61-66.72-20.11-100.63,7.31-36.73,29.7-56.72,80.15-64.03,98.13-1.86,4.58-30.54,94.24-.9,142.68,28.22,46.1,75.43,29.58,126.13-4.52,41.4-27.85,80.35-77.17,93.24-94.32,1.28-1.7,3.95-.78,3.96,1.35.04,15.78,8.84,16.3,13.57,13.15,3.4-2.26,10.78-13.15,15.77-20.89,1.24-1.92,4.21-.92,4.04,1.36-.55,7.62-.67,17.93,2,23.07,4.33,8.34,12.53,5.78,16.93,3.59,2.05-1.02,4.46-.95,6.47.14l4.52,2.43c2.14,1.15,3.43,3.43,3.3,5.86-.49,9.09-1.55,32.47-.98,55.73.72,29.45,10.72,40.31,18.28,38.15,25.11-7.2,5.39-72.14-5.21-88.92-1.55-2.46-2.56-6.83-2.26-9.72l1.47-14.01c.09-.83.63-1.52,1.41-1.82,10.49-4.08,20.38-10.71,25.87-14.75,1.59-1.16,3.79.17,3.48,2.12-5.32,33.46,9.4,32.51,14.9,29.86,11.15-5.38,34.52-39.59,35.42-44.08,0-.04.02-.09.03-.13.44-2.37-2.75-3.58-4.04-1.54Zm-27.77-9.5s-1.05,10.29-3.33,10.05c-1.98-.2,3.08-14.03,3.33-10.05Zm-114.13,28.04c-.12.14-.34,0-.29-.17,1.36-4.7,9.31-30.79,18.42-30.21,8.16.52-14.46,26.27-18.13,30.38Zm54.33,20.12s-.05.08-.1.06l-4.88-2.4s-.05-.09,0-.12l4.88-2.84s.1,0,.1.06v5.24Zm1.02-9.07c0,.14-.12.26-.26.26h-5.45c-.19,0-.32-.19-.24-.37l5-11.51.95-2.24v13.86Zm18.57,56.46c2.84,8.73,9.13,54.99-5.68,50.01-15.23-5.13-5.7-79.49-5.7-79.49,0,0,8.53,20.75,11.37,29.48Z"/>
    </g>
  </g>
  <g>
    <path class="cls-2" d="m228.54,771.19c1.77-1.49,3.43-2.5,4.99-3.04,1.56-.54,3.05-.69,4.46-.44,1.42.25,2.8.85,4.14,1.8,1.34.95,2.65,2.19,3.94,3.73l4.61,5.48,8.36-7.04c.63-.53,1.27-.72,1.93-.57.66.15,1.19.46,1.59.93.43.51.65,1.09.67,1.75.02.66-.29,1.25-.92,1.78l-31.63,26.64c-.55.46-1.18.66-1.88.58-.7-.08-1.27-.37-1.7-.88l-6.7-7.95c-.69-.82-1.41-1.83-2.15-3.03-.74-1.19-1.22-2.51-1.47-3.95-.24-1.44-.07-2.98.5-4.6.58-1.63,1.87-3.28,3.87-4.97l7.36-6.2Zm.88,25.43l17.26-14.53-4.61-5.48c-.6-.71-1.26-1.37-1.99-2-.73-.63-1.52-1.07-2.37-1.32-.85-.25-1.77-.25-2.76,0-.99.26-2.05.87-3.19,1.83l-7.25,6.21c-.35.3-.76.71-1.23,1.23-.46.53-.79,1.17-.99,1.94-.19.77-.17,1.65.07,2.66.24,1,.91,2.15,2,3.45l5.06,6.01Z"/>
    <path class="cls-2" d="m215.94,729.08l7.79,12.02,9.63-2.85c.83-.23,1.55-.16,2.15.21.61.37,1.03.86,1.27,1.47.24.61.25,1.21.03,1.82-.22.6-.77,1.03-1.64,1.29-6.77,2.01-13.54,4.02-20.3,6.05-6.76,2.03-13.56,4.1-20.39,6.2-.74.18-1.42.14-2.04-.1s-1.09-.62-1.43-1.14c-.31-.47-.45-1.04-.42-1.7.03-.66.28-1.3.74-1.9l27.58-32.48c.49-.56,1.06-.84,1.71-.83.65,0,1.21.21,1.68.61.47.4.76.91.87,1.55.11.64-.12,1.28-.67,1.95l-6.57,7.84Zm2.63,13.53l-6.16-9.5c-2.18,2.58-4.26,5.06-6.23,7.44-1.97,2.38-4.15,4.95-6.52,7.71l18.91-5.65Z"/>
    <path class="cls-2" d="m205.96,701.29c-.52.7-1.11,1.09-1.79,1.16-.68.07-1.27-.09-1.77-.48-.5-.39-.83-.93-.99-1.62-.16-.69,0-1.43.47-2.23.26-.41.52-.94.77-1.61.25-.66.42-1.42.49-2.28.07-.86.04-1.8-.11-2.81-.14-1.01-.47-2.05-.98-3.12-.22-.46-.6-1.01-1.13-1.64-.53-.63-1.21-1.19-2.04-1.67-.83-.48-1.8-.82-2.91-1-1.11-.18-2.35-.03-3.71.45-1.68.52-2.94,1.83-3.75,3.93-.82,2.1-1.25,4.75-1.31,7.97.03,2.2,0,4.28-.09,6.23-.09,1.95-.35,3.73-.78,5.32-.43,1.6-1.07,3-1.92,4.2-.85,1.2-2.01,2.16-3.49,2.87-1.76.84-3.47,1.23-5.12,1.17-1.65-.06-3.18-.46-4.58-1.18-1.4-.72-2.66-1.73-3.79-3.01-1.13-1.28-2.08-2.73-2.85-4.35-.69-1.43-1.1-2.81-1.25-4.14-.15-1.32-.15-2.53.01-3.63.16-1.1.41-2.06.76-2.88.35-.82.69-1.48,1.02-1.98.45-.73,1.01-1.14,1.67-1.23.67-.09,1.27,0,1.8.29.54.29.93.75,1.18,1.4.25.65.17,1.36-.26,2.13-.21.39-.42.85-.61,1.4-.19.55-.34,1.16-.45,1.83-.1.68-.11,1.4-.02,2.19.09.78.33,1.59.73,2.42.47.97,1.04,1.87,1.71,2.68.68.82,1.43,1.47,2.26,1.95.83.49,1.71.79,2.65.91.94.12,1.92-.06,2.94-.55.79-.38,1.41-.93,1.85-1.66.45-.73.78-1.62.98-2.69.2-1.06.34-2.27.41-3.61.07-1.34.08-2.83.04-4.46.06-1.91.12-3.8.18-5.68.07-1.88.37-3.65.92-5.31.55-1.66,1.39-3.13,2.54-4.42,1.15-1.29,2.8-2.3,4.94-3.05,1.71-.59,3.36-.85,4.96-.79,1.6.06,3.1.39,4.53.99,1.43.6,2.7,1.44,3.81,2.53,1.12,1.09,2.03,2.37,2.74,3.85.53,1.11.94,2.35,1.23,3.72.29,1.37.41,2.73.38,4.09-.03,1.35-.23,2.67-.59,3.95-.35,1.28-.92,2.42-1.7,3.41Z"/>
    <path class="cls-2" d="m141.61,647.85c-.26-.78-.19-1.44.2-1.97s.9-.91,1.54-1.12c.63-.21,1.26-.21,1.86,0,.61.2,1.04.7,1.3,1.48l2.76,8.33,36.77-12.16c.78-.26,1.45-.2,2.01.19.56.38.94.89,1.15,1.52.21.63.2,1.26-.03,1.87-.23.62-.73,1.05-1.51,1.31l-36.77,12.16,2.93,8.85c.26.78.2,1.43-.16,1.96-.37.53-.87.89-1.5,1.1-.63.21-1.27.22-1.9.02s-1.08-.68-1.34-1.46l-7.3-22.08Z"/>
    <path class="cls-2" d="m136.82,618.88c-.86.17-1.57.02-2.13-.44-.56-.46-.91-1.02-1.04-1.68l-3.43-17.37c-.17-.86-.04-1.53.38-2.04.42-.5.96-.82,1.62-.95.66-.13,1.29-.04,1.89.25.61.3,1,.88,1.17,1.73l2.95,14.96,14.66-2.89-2.34-11.86c-.17-.86-.04-1.55.38-2.08.42-.53.96-.86,1.61-.99.66-.13,1.3-.03,1.94.28.64.32,1.04.91,1.21,1.76l2.34,11.86,15.64-3.09-2.95-14.96c-.16-.81-.01-1.46.44-1.97.45-.51.98-.82,1.58-.94.66-.13,1.27-.04,1.86.26.58.3.95.86,1.11,1.66l3.43,17.37c.13.66.09,1.29-.13,1.91-.22.62-.88,1.04-1.99,1.26l-40.19,7.94Z"/>
    <path class="cls-2" d="m128.56,568.5c-.82.06-1.45-.15-1.9-.63-.45-.48-.69-1.03-.74-1.64s.12-1.21.49-1.77c.37-.57.96-.88,1.78-.94l38.62-2.89-1.14-15.28c-.06-.87.16-1.54.66-2.02.51-.47,1.09-.74,1.76-.79.67-.05,1.27.12,1.81.52.54.4.85,1.03.91,1.9l1.32,17.74c.06.77-.15,1.4-.63,1.9-.48.5-1.02.77-1.64.82l-41.31,3.09Z"/>
    <path class="cls-2" d="m126.86,520.41c-.87-.04-1.53-.35-1.96-.93-.44-.58-.64-1.21-.61-1.88l.77-17.69c.04-.87.32-1.5.85-1.89.53-.39,1.13-.57,1.8-.54.67.03,1.26.26,1.78.69.52.43.76,1.09.72,1.96l-.66,15.23,14.92.65.52-12.08c.04-.87.32-1.51.85-1.93.53-.41,1.13-.61,1.8-.58.67.03,1.27.27,1.82.73.55.46.8,1.13.76,2l-.52,12.08,15.92.69.66-15.23c.04-.82.33-1.42.89-1.81.56-.39,1.14-.57,1.76-.54.67.03,1.25.26,1.74.69.5.43.72,1.06.69,1.88l-.77,17.69c-.03.67-.22,1.28-.58,1.82-.36.55-1.1.8-2.23.75l-40.93-1.77Z"/>
    <path class="cls-2" d="m172.35,471.27c.86.15,1.43.52,1.72,1.12.29.6.38,1.2.28,1.81-.11.66-.4,1.21-.87,1.65-.47.44-1.13.59-1.99.44l-40.75-7.02c-.76-.13-1.33-.44-1.72-.92-.39-.48-.5-1.15-.36-2.01l1.76-10.24c.12-.71.4-1.71.83-3.02.43-1.3,1.13-2.55,2.09-3.74.96-1.19,2.26-2.15,3.9-2.88,1.64-.73,3.75-.88,6.33-.43l9.49,1.63c2.88.5,5.14,1.46,6.77,2.88,1.63,1.43,2.64,3.42,3.03,5.99l11.28-3.37c.55-.17,1.05-.2,1.5-.09.45.1.82.31,1.1.62.29.31.5.67.63,1.09.14.41.17.82.1,1.23-.08.46-.31.91-.7,1.36-.39.45-.94.78-1.65.97l-12.34,3.58-1.29,7.51,10.85,1.87Zm-29.64-20.26c-.46-.08-1.04-.11-1.74-.1-.7,0-1.41.2-2.13.57-.71.37-1.38.99-2,1.84-.62.86-1.06,2.07-1.33,3.64l-1.33,7.74,22.23,3.83,1.21-7.06c.16-.91.24-1.85.25-2.81,0-.96-.16-1.84-.52-2.63-.36-.79-.94-1.49-1.75-2.1-.81-.61-1.94-1.04-3.41-1.29l-9.49-1.63Z"/>
    <path class="cls-2" d="m124.47,409.37c-.75-.54-1.18-1.16-1.26-1.88-.09-.72.04-1.35.38-1.89.34-.54.85-.89,1.54-1.04.68-.15,1.42.07,2.21.67l2.06,1.47c.76.54,1.17,1.15,1.24,1.83.07.69-.06,1.3-.41,1.85-.34.54-.83.91-1.48,1.1-.64.19-1.31.03-2.02-.5l-2.26-1.61Zm17.4,7.21c-.79-.23-1.31-.64-1.57-1.25-.25-.61-.3-1.21-.13-1.8.17-.59.53-1.09,1.07-1.5.54-.41,1.21-.5,2-.27l39.91,11.39c.79.23,1.31.64,1.57,1.25.25.61.29,1.22.12,1.83-.18.62-.53,1.12-1.07,1.5-.54.38-1.2.46-1.99.23l-39.91-11.39Z"/>
    <path class="cls-2" d="m189.34,377.84l-5.39,13.27,7.84,6.26c.66.55,1.02,1.18,1.06,1.89.04.71-.11,1.34-.48,1.88-.36.55-.85.9-1.47,1.06-.62.16-1.29-.04-2-.6-5.52-4.41-11.05-8.8-16.58-13.18-5.53-4.38-11.12-8.77-16.76-13.17-.57-.51-.93-1.08-1.08-1.73-.15-.64-.11-1.25.12-1.82.21-.52.6-.96,1.16-1.32.56-.35,1.22-.51,1.98-.48l42.42,4.03c.74.08,1.3.39,1.66.92.36.54.52,1.11.46,1.73-.06.62-.31,1.15-.77,1.6-.46.45-1.12.64-1.98.57l-10.19-.9Zm-9.59,9.9l4.26-10.49c-3.36-.31-6.59-.6-9.67-.86-3.08-.26-6.43-.56-10.05-.93l15.46,12.27Z"/>
    <path class="cls-2" d="m246.67,295.55c.83-.09,1.49.07,1.98.49.49.42.78.92.86,1.49.09.58-.04,1.14-.37,1.68-.34.55-.9.88-1.69,1l-.48.13c-.25.07-.62.15-1.12.23-.5.08-1.26.19-2.26.35.39,2.51.13,4.86-.76,7.03-.89,2.18-1.99,4.16-3.3,5.94-1.27,1.74-2.68,3.18-4.21,4.31-1.53,1.14-3.14,1.9-4.83,2.29-1.68.39-3.41.4-5.17.03-1.76-.37-3.52-1.19-5.26-2.47-2.36-1.73-4-3.66-4.92-5.8-.92-2.14-1.47-4.42-1.66-6.85-2.29.17-4.33.12-6.14-.16s-3.45-.96-4.94-2.05c-1.66-1.21-2.79-2.6-3.4-4.16-.61-1.56-.85-3.15-.74-4.79.12-1.63.52-3.25,1.21-4.84.69-1.59,1.49-3.01,2.4-4.25,1.91-2.61,4.02-4.36,6.33-5.24,2.31-.89,4.75-1.02,7.35-.39.8.21,1.35.61,1.65,1.21.29.6.38,1.18.24,1.75s-.48,1.07-1.04,1.48c-.56.42-1.28.53-2.15.33-1.85-.34-3.47-.08-4.87.78-1.39.86-2.53,1.89-3.41,3.09-.67.91-1.23,1.88-1.7,2.91-.47,1.03-.74,2.03-.83,3.02-.09.99.01,1.92.29,2.79.28.88.82,1.6,1.6,2.18.54.39,1.19.7,1.96.91.77.21,1.59.35,2.46.42.87.07,1.77.08,2.7.02.93-.05,1.79-.14,2.58-.26l21.71-3.18c-.97-1.54-2.11-2.92-3.42-4.13-1.31-1.21-2.68-2.35-4.13-3.41-.66-.48-1-1.05-1-1.69,0-.64.18-1.22.56-1.74.38-.52.89-.86,1.52-1.03.63-.17,1.26-.03,1.88.43,1.08.79,2.09,1.53,3.04,2.23.95.7,1.84,1.46,2.67,2.29.82.83,1.59,1.74,2.29,2.73.7.99,1.35,2.18,1.93,3.56l4.58-.65Zm-28.11,9.18c.06.62.15,1.32.27,2.11.12.79.36,1.6.7,2.43.35.83.81,1.63,1.39,2.4.58.77,1.34,1.47,2.28,2.1,2.27,1.6,4.46,2.08,6.58,1.44,2.12-.64,4-2.08,5.64-4.31.82-1.12,1.59-2.41,2.32-3.88.73-1.47.97-3.22.74-5.24l-19.93,2.96Z"/>
    <path class="cls-2" d="m266.18,218.51c-.56-.67-.78-1.36-.64-2.08.13-.72.46-1.29.97-1.72l13.55-11.4c.67-.56,1.32-.78,1.97-.65.64.13,1.18.45,1.61.96.43.51.66,1.1.69,1.78.03.68-.29,1.3-.95,1.86l-11.67,9.81,9.61,11.43,9.25-7.78c.67-.56,1.33-.79,2-.67.66.11,1.21.42,1.64.93.43.51.66,1.12.69,1.84.03.71-.29,1.35-.96,1.91l-9.25,7.78,10.26,12.2,11.67-9.81c.63-.53,1.27-.72,1.93-.57.66.15,1.19.46,1.59.93.43.51.65,1.1.67,1.75.02.66-.29,1.25-.92,1.78l-13.55,11.4c-.51.43-1.09.7-1.74.81-.65.11-1.33-.27-2.06-1.13l-26.36-31.35Z"/>
    <path class="cls-2" d="m325.68,218.69c-.76-.42-1.22-.97-1.38-1.63-.15-.66-.07-1.27.25-1.81.32-.54.81-.94,1.48-1.19.67-.25,1.42-.19,2.27.18.44.21,1,.39,1.69.56.69.17,1.46.23,2.33.19.86-.04,1.79-.19,2.77-.46.99-.27,1.97-.73,2.97-1.37.43-.28.92-.72,1.48-1.32.56-.6,1.02-1.35,1.4-2.23.38-.88.58-1.89.62-3.01.04-1.12-.27-2.33-.92-3.62-.73-1.6-2.19-2.68-4.38-3.22-2.19-.54-4.88-.64-8.07-.28-2.18.31-4.25.55-6.19.7-1.95.16-3.74.13-5.38-.1-1.64-.22-3.11-.68-4.41-1.36-1.3-.69-2.4-1.72-3.29-3.1-1.06-1.64-1.66-3.28-1.81-4.93-.15-1.65.05-3.21.59-4.69.54-1.48,1.37-2.86,2.5-4.14,1.13-1.28,2.45-2.41,3.96-3.38,1.34-.86,2.65-1.45,3.94-1.77,1.29-.32,2.49-.47,3.61-.45,1.11.02,2.09.14,2.95.38.86.24,1.56.49,2.09.76.78.35,1.25.85,1.43,1.5.18.65.16,1.26-.06,1.83-.21.57-.63,1.02-1.24,1.35-.61.33-1.33.34-2.15.01-.41-.16-.9-.3-1.47-.43-.57-.12-1.19-.19-1.88-.21-.68-.02-1.41.07-2.17.26-.76.19-1.53.53-2.31,1.04-.91.59-1.72,1.26-2.44,2.04-.72.77-1.27,1.6-1.65,2.49-.38.89-.56,1.8-.56,2.75,0,.95.31,1.9.92,2.84.47.73,1.1,1.28,1.88,1.63.78.35,1.71.56,2.79.63,1.08.07,2.29.05,3.63-.06,1.34-.1,2.82-.28,4.43-.53,1.9-.19,3.78-.37,5.66-.54,1.87-.17,3.67-.09,5.38.24,1.71.33,3.28.98,4.7,1.96,1.42.97,2.64,2.48,3.65,4.52.8,1.62,1.27,3.23,1.42,4.81.14,1.59,0,3.13-.41,4.62-.41,1.49-1.09,2.86-2.02,4.1-.94,1.25-2.09,2.32-3.47,3.21-1.03.67-2.21,1.23-3.54,1.69-1.32.46-2.66.76-4.01.89-1.35.14-2.68.11-3.99-.08-1.31-.19-2.52-.6-3.6-1.25Z"/>
    <path class="cls-2" d="m382.49,165.44c1,2.08,1.56,3.95,1.7,5.59.13,1.64-.1,3.12-.69,4.43-.6,1.31-1.52,2.5-2.78,3.55-1.26,1.06-2.79,2.02-4.59,2.89l-6.46,3.1,4.73,9.86c.36.74.38,1.41.07,2.02-.31.6-.74,1.04-1.3,1.3-.6.29-1.22.36-1.86.21-.64-.15-1.14-.59-1.49-1.33l-17.88-37.29c-.31-.65-.34-1.3-.09-1.96.25-.66.68-1.14,1.28-1.43l9.37-4.49c.97-.47,2.13-.91,3.47-1.32,1.34-.41,2.74-.56,4.19-.43,1.46.13,2.9.67,4.33,1.64,1.43.97,2.71,2.63,3.84,4.99l4.16,8.68Zm-24.84-5.51l9.75,20.34,6.46-3.1c.83-.4,1.64-.87,2.43-1.42.79-.55,1.42-1.2,1.88-1.97.46-.76.69-1.65.68-2.68,0-1.02-.33-2.2-.97-3.55l-4.2-8.58c-.2-.42-.5-.91-.89-1.5-.39-.58-.94-1.06-1.63-1.44-.69-.38-1.56-.58-2.59-.59-1.03-.02-2.31.34-3.84,1.07l-7.08,3.4Z"/>
    <path class="cls-2" d="m399.12,139.4c-.28-.83-.22-1.55.17-2.17.39-.62.9-1.03,1.53-1.24l16.8-5.6c.83-.28,1.52-.23,2.07.12.55.36.93.85,1.14,1.49.21.63.21,1.27-.01,1.91-.22.64-.74,1.1-1.57,1.38l-14.46,4.82,4.73,14.17,11.47-3.83c.83-.28,1.53-.24,2.11.11.58.35.97.84,1.18,1.47.21.63.2,1.29-.04,1.96-.24.67-.77,1.15-1.59,1.42l-11.47,3.83,5.04,15.12,14.46-4.82c.78-.26,1.45-.2,2.01.18.56.38.94.86,1.13,1.45.21.63.2,1.26-.02,1.88-.23.62-.73,1.06-1.51,1.32l-16.8,5.6c-.63.21-1.27.25-1.91.11-.64-.14-1.14-.74-1.5-1.81l-12.96-38.86Z"/>
    <path class="cls-2" d="m461.64,119.42c1.71-.33,3.45-.47,5.21-.45,1.76.03,3.4.33,4.92.9,1.52.57,2.82,1.43,3.9,2.59,1.08,1.15,1.81,2.71,2.19,4.68.17.91.05,1.62-.37,2.15-.42.53-.96.85-1.62.98-.66.13-1.3.01-1.95-.33-.64-.35-1.04-.95-1.21-1.81-.03-.15-.17-.52-.41-1.1-.24-.58-.73-1.13-1.45-1.64-.73-.51-1.74-.92-3.06-1.22-1.31-.3-3.05-.24-5.22.17-3.48.66-5.86,1.86-7.15,3.6-1.29,1.74-1.62,4.24-.99,7.52l3.48,18.23c.63,3.28,1.93,5.37,3.9,6.27,1.98.9,4.53,1.06,7.65.46,3.18-.61,5.47-1.75,6.87-3.43,1.4-1.68,1.81-4.06,1.22-7.13-.16-.86-.02-1.55.43-2.08.45-.53.97-.85,1.58-.97.65-.13,1.28-.02,1.86.31.58.33.96.93,1.12,1.78.49,2.57.56,4.79.21,6.66-.35,1.87-1.06,3.46-2.15,4.76s-2.49,2.36-4.22,3.16c-1.73.8-3.73,1.42-6,1.85-4.94.94-8.84.63-11.7-.94-2.86-1.57-4.76-4.83-5.71-9.77l-3.48-18.23c-.51-2.67-.61-4.98-.3-6.92.31-1.94.99-3.57,2.04-4.9,1.05-1.32,2.45-2.4,4.2-3.23,1.75-.83,3.81-1.47,6.18-1.92Z"/>
    <path class="cls-2" d="m505.12,116.11c-.06-.82.14-1.45.62-1.9.48-.45,1.03-.7,1.64-.75.61-.05,1.21.11,1.77.48.57.37.89.96.95,1.78l3.22,41.38c.06.82-.15,1.45-.62,1.9-.48.45-1.04.7-1.68.75-.64.05-1.23-.11-1.77-.48-.54-.37-.85-.96-.91-1.78l-3.22-41.38Z"/>
    <path class="cls-2" d="m558.02,147.05l-14.32-.4-3.12,9.54c-.28.81-.74,1.37-1.39,1.66-.65.29-1.29.36-1.93.22-.64-.15-1.14-.48-1.51-1.01-.37-.52-.42-1.22-.13-2.08,2.19-6.72,4.37-13.44,6.53-20.15,2.16-6.72,4.32-13.49,6.46-20.31.28-.71.69-1.25,1.24-1.62.55-.37,1.13-.55,1.75-.53.56.02,1.11.22,1.64.62.53.4.91.96,1.15,1.69l11.1,41.14c.18.72.09,1.35-.28,1.88-.37.53-.86.88-1.45,1.04-.6.16-1.19.11-1.77-.16-.58-.27-.99-.82-1.22-1.65l-2.73-9.86Zm-12.63-5.51l11.31.32c-.88-3.26-1.75-6.38-2.59-9.35-.84-2.98-1.73-6.22-2.66-9.74l-6.07,18.78Z"/>
    <path class="cls-2" d="m594.07,118.07c.12-.81.47-1.38,1.04-1.71.57-.33,1.16-.45,1.77-.35s1.15.38,1.62.87c.47.49.64,1.14.52,1.95l-5.88,38.28,15.15,2.33c.86.13,1.47.5,1.82,1.1.35.6.47,1.23.37,1.89-.1.66-.41,1.21-.92,1.65-.51.44-1.2.6-2.06.46l-17.58-2.7c-.76-.12-1.33-.46-1.71-1.04-.38-.58-.52-1.17-.43-1.78l6.29-40.95Z"/>
    <path class="cls-2" d="m641.22,127.14c.21-.79.61-1.33,1.21-1.6.6-.27,1.2-.33,1.79-.17.6.15,1.1.5,1.52,1.03.42.53.53,1.2.32,1.99l-10.36,40.19c-.21.8-.61,1.33-1.21,1.6-.6.27-1.21.32-1.83.16-.62-.16-1.13-.5-1.52-1.03-.4-.53-.49-1.19-.28-1.98l10.36-40.19Z"/>
    <path class="cls-2" d="m674.42,136.83c.37-.96.87-1.49,1.52-1.6.65-.11,1.23-.06,1.76.14l11.5,4.41c9.44,3.62,12.45,9.91,9.01,18.88l-7.06,18.41c-.53,1.39-1.34,2.67-2.43,3.85-1.08,1.18-2.41,2.09-3.97,2.72-1.56.64-3.35.96-5.36.96-2.01,0-4.21-.46-6.6-1.38l-11.72-4.49c-.53-.2-.99-.57-1.39-1.11-.4-.54-.43-1.24-.1-2.1l14.83-38.68Zm19.05,20c1.14-2.97,1.2-5.45.17-7.44-1.03-1.99-3.12-3.59-6.28-4.8l-9.13-3.5-12.98,33.86,9.35,3.58c1.1.42,2.26.7,3.47.84,1.21.14,2.36.08,3.44-.16,1.08-.24,2.07-.69,2.95-1.34.88-.65,1.53-1.53,1.96-2.63l7.06-18.41Z"/>
    <path class="cls-2" d="m730.68,197.65l-12.53-6.94-7.16,7.04c-.62.59-1.29.87-2,.83-.71-.04-1.32-.27-1.81-.7-.5-.42-.79-.95-.88-1.59-.09-.63.19-1.27.84-1.91,5.03-4.96,10.06-9.92,15.07-14.89,5.01-4.97,10.04-9.99,15.08-15.06.57-.5,1.19-.79,1.85-.87.66-.08,1.26.04,1.8.33.49.27.88.71,1.17,1.31.29.6.36,1.27.24,2.03l-9.06,41.63c-.17.73-.54,1.24-1.12,1.54-.58.3-1.17.38-1.77.25-.6-.13-1.1-.45-1.49-.96-.39-.51-.5-1.19-.33-2.03l2.11-10.01Zm-8.68-10.71l9.9,5.48c.71-3.3,1.38-6.47,2-9.5.62-3.03,1.33-6.32,2.12-9.87l-14.03,13.88Z"/>
    <path class="cls-2" d="m776.46,188.74c.62-.82,1.25-1.19,1.9-1.12.65.07,1.2.28,1.65.62l9.85,7.4c8.08,6.08,9.24,12.95,3.48,20.62l-11.84,15.76c-.89,1.19-2.03,2.2-3.39,3.04-1.37.84-2.89,1.34-4.57,1.53-1.68.18-3.48,0-5.41-.55-1.93-.55-3.92-1.6-5.97-3.14l-10.03-7.54c-.45-.34-.8-.82-1.03-1.45-.24-.63-.08-1.31.48-2.05l24.89-33.12Zm12.82,24.47c1.91-2.54,2.65-4.91,2.21-7.1-.44-2.19-2.01-4.31-4.72-6.34l-7.82-5.87-21.79,28.99,8,6.01c.94.71,1.98,1.3,3.11,1.76,1.13.46,2.25.73,3.36.79s2.18-.1,3.2-.48c1.03-.38,1.89-1.05,2.6-1.99l11.84-15.76Z"/>
    <path class="cls-2" d="m822.19,226.13c.61-.62,1.28-.9,2.01-.83.73.07,1.33.33,1.8.8l12.62,12.42c.62.61.9,1.25.83,1.9-.07.65-.34,1.22-.8,1.69-.47.48-1.04.76-1.71.86-.67.1-1.32-.16-1.94-.77l-10.87-10.7-10.48,10.65,8.62,8.48c.62.61.91,1.25.86,1.93-.05.67-.31,1.25-.78,1.72-.47.48-1.06.76-1.76.86-.71.1-1.37-.16-1.99-.77l-8.62-8.48-11.18,11.36,10.87,10.7c.58.58.83,1.2.75,1.87-.09.67-.34,1.23-.78,1.67-.47.48-1.03.75-1.68.83-.65.08-1.27-.17-1.86-.75l-12.62-12.42c-.48-.47-.8-1.02-.97-1.65-.17-.63.14-1.35.94-2.16l28.74-29.19Z"/>
    <path class="cls-2" d="m827.6,285.38c.35-.8.85-1.31,1.5-1.52.65-.22,1.25-.19,1.83.08.57.27,1.01.72,1.32,1.36s.32,1.4.03,2.28c-.16.46-.3,1.03-.4,1.74-.1.7-.09,1.48.03,2.33.12.85.36,1.76.72,2.72.36.96.91,1.9,1.64,2.82.32.4.8.85,1.46,1.35.65.5,1.44.89,2.36,1.18.92.29,1.94.4,3.06.33,1.12-.07,2.3-.49,3.52-1.26,1.53-.88,2.46-2.43,2.8-4.66.33-2.23.18-4.91-.48-8.06-.52-2.14-.94-4.18-1.28-6.1-.34-1.92-.48-3.71-.41-5.37.07-1.66.38-3.16.94-4.52.56-1.36,1.49-2.55,2.78-3.57,1.53-1.21,3.11-1.96,4.73-2.27,1.63-.3,3.2-.25,4.73.14,1.52.4,2.98,1.1,4.36,2.1,1.38,1,2.63,2.21,3.74,3.62.99,1.25,1.7,2.5,2.13,3.76.44,1.26.7,2.44.79,3.55s.05,2.1-.1,2.98c-.16.88-.34,1.6-.55,2.16-.28.81-.73,1.33-1.36,1.57-.63.24-1.24.27-1.82.11-.58-.16-1.07-.53-1.46-1.1-.39-.58-.46-1.29-.21-2.14.12-.42.22-.92.29-1.5.07-.58.08-1.21.03-1.89-.05-.68-.2-1.39-.46-2.14-.26-.74-.68-1.48-1.25-2.2-.67-.85-1.42-1.59-2.26-2.24-.84-.65-1.71-1.12-2.63-1.41-.92-.29-1.85-.39-2.79-.3-.94.09-1.86.49-2.74,1.18-.69.54-1.17,1.22-1.44,2.02-.28.81-.4,1.75-.36,2.84.04,1.08.17,2.29.4,3.61.23,1.32.54,2.78.94,4.36.36,1.87.72,3.73,1.07,5.58.35,1.85.44,3.64.27,5.38-.17,1.73-.67,3.36-1.5,4.87-.84,1.51-2.22,2.86-4.15,4.06-1.54.95-3.09,1.57-4.66,1.86-1.57.29-3.11.3-4.64.03-1.52-.27-2.95-.81-4.28-1.63-1.33-.81-2.5-1.87-3.52-3.16-.76-.97-1.44-2.09-2.02-3.36-.58-1.27-1-2.58-1.27-3.9-.26-1.33-.36-2.66-.3-3.98.06-1.33.36-2.56.9-3.7Z"/>
    <path class="cls-2" d="m916.46,350.91c.74,1.58,1.32,3.22,1.73,4.93.41,1.71.53,3.37.35,4.99-.17,1.61-.69,3.09-1.53,4.43-.85,1.34-2.17,2.43-3.98,3.28-.84.39-1.56.45-2.17.17-.61-.28-1.06-.72-1.35-1.32-.28-.6-.34-1.26-.16-1.97.18-.71.66-1.25,1.45-1.62.14-.07.46-.29.96-.67.5-.38.91-.98,1.23-1.81.32-.83.46-1.92.42-3.26s-.53-3.02-1.47-5.01c-1.51-3.2-3.27-5.21-5.27-6.03-2-.82-4.51-.51-7.53.91l-16.78,7.92c-3.02,1.42-4.72,3.2-5.1,5.34-.38,2.14.11,4.65,1.46,7.53,1.38,2.93,3.06,4.86,5.03,5.8s4.38.74,7.21-.59c.79-.37,1.5-.41,2.12-.11.62.3,1.07.73,1.33,1.29.28.6.34,1.23.16,1.88-.18.65-.66,1.16-1.45,1.53-2.37,1.12-4.5,1.74-6.4,1.87s-3.61-.17-5.15-.89c-1.53-.72-2.9-1.82-4.11-3.3-1.21-1.47-2.3-3.26-3.29-5.35-2.15-4.55-2.82-8.41-2.01-11.57.81-3.16,3.49-5.82,8.04-7.96l16.78-7.92c2.46-1.16,4.67-1.83,6.63-2.02,1.96-.19,3.71.07,5.25.76,1.54.69,2.94,1.78,4.18,3.26,1.24,1.49,2.37,3.32,3.4,5.5Z"/>
    <path class="cls-2" d="m920.11,395.5c4.46-1.37,8.18-1.29,11.15.24,2.97,1.53,5.14,4.53,6.51,9l.59,1.91c1.36,4.42,1.24,8.1-.35,11.06-1.59,2.96-4.62,5.12-9.08,6.5l-18.25,5.61c-2.01.62-3.94.86-5.78.73-1.84-.13-3.53-.61-5.07-1.42-1.54-.82-2.88-1.95-4.02-3.4-1.14-1.45-2.02-3.18-2.64-5.19l-.59-1.91c-.63-2.06-.88-4.01-.75-5.85.13-1.84.61-3.52,1.43-5.03.82-1.52,1.96-2.84,3.41-3.99,1.45-1.14,3.18-2.02,5.19-2.64l18.25-5.61Zm-22.02,23.52c.81,2.65,2.21,4.49,4.19,5.52,1.98,1.03,4.27,1.14,6.87.35l18.25-5.61c5.79-1.78,7.82-5.49,6.08-11.13l-.59-1.91c-.86-2.8-2.25-4.72-4.19-5.76-1.93-1.05-4.32-1.13-7.17-.26l-18.25,5.61c-2.7.83-4.54,2.25-5.53,4.28-.99,2.02-1.08,4.36-.26,7.01l.59,1.91Z"/>
    <path class="cls-2" d="m909.29,481.96c-.81.13-1.46-.03-1.95-.47-.49-.44-.78-.97-.87-1.58-.07-.46,0-.97.22-1.56.22-.58.56-1.04,1.03-1.37,2.56-1.86,5.01-3.63,7.34-5.3,2.33-1.67,4.63-3.33,6.89-4.99,2.26-1.66,4.55-3.32,6.89-4.99,2.33-1.67,4.81-3.44,7.42-5.31l-30.27,4.81c-.81.13-1.46-.03-1.95-.47-.49-.44-.78-.99-.89-1.65-.1-.61.01-1.21.34-1.81.32-.6.89-.96,1.7-1.09l40.91-6.5c.66-.1,1.2.02,1.62.37.42.35.72.78.91,1.3.19.52.23,1.04.13,1.58-.1.53-.33.94-.71,1.2l-29.16,21.08,30.49-4.84c.81-.13,1.46.03,1.95.47.49.44.78.99.89,1.65.1.66,0,1.29-.32,1.88-.32.6-.89.96-1.7,1.09l-40.91,6.5Z"/>
    <path class="cls-2" d="m954.83,558.24c-.12,1.74-.43,3.46-.91,5.15-.48,1.69-1.19,3.2-2.14,4.52-.94,1.32-2.11,2.36-3.5,3.11-1.39.75-3.09,1.05-5.08.91-.92-.07-1.58-.37-1.98-.91-.4-.54-.57-1.15-.53-1.81.05-.67.32-1.26.82-1.79.5-.53,1.19-.76,2.06-.7.15.01.54-.03,1.17-.11.62-.08,1.28-.41,1.96-.98.68-.57,1.34-1.45,1.96-2.64.63-1.19,1.02-2.89,1.17-5.09.25-3.53-.29-6.15-1.64-7.84-1.35-1.69-3.68-2.66-7.01-2.89l-18.51-1.32c-3.33-.24-5.68.48-7.06,2.16-1.38,1.68-2.18,4.1-2.41,7.28-.23,3.23.28,5.73,1.55,7.52,1.26,1.79,3.45,2.79,6.58,3.02.87.06,1.5.38,1.9.95.4.57.57,1.16.53,1.77-.05.66-.31,1.24-.78,1.72-.47.48-1.14.69-2.01.63-2.61-.19-4.78-.69-6.49-1.51-1.72-.82-3.07-1.92-4.05-3.3s-1.64-3.01-1.97-4.89c-.33-1.88-.41-3.97-.25-6.27.36-5.02,1.67-8.71,3.92-11.07,2.25-2.36,5.89-3.36,10.91-3l18.51,1.32c2.71.19,4.97.69,6.76,1.49,1.8.8,3.2,1.88,4.21,3.23,1.01,1.36,1.69,2.99,2.04,4.89.35,1.9.44,4.06.27,6.47Z"/>
    <path class="cls-2" d="m911.52,614.37l2.97-14.01-8.83-4.78c-.75-.42-1.21-.98-1.38-1.67-.17-.69-.12-1.34.14-1.94.26-.6.68-1.04,1.26-1.31.58-.27,1.27-.19,2.07.24,6.21,3.36,12.43,6.71,18.65,10.05,6.22,3.34,12.49,6.67,18.82,10,.65.4,1.11.9,1.37,1.51s.33,1.21.21,1.81c-.12.55-.42,1.05-.91,1.5-.49.45-1.11.72-1.87.82l-42.46,3.53c-.75.05-1.34-.15-1.8-.62-.45-.46-.71-1-.76-1.62-.05-.62.11-1.19.48-1.71.37-.52.99-.83,1.85-.91l10.19-.91Zm7.69-11.44l-2.34,11.07c3.37-.28,6.59-.57,9.67-.87,3.08-.29,6.43-.58,10.06-.86l-17.38-9.35Z"/>
    <path class="cls-2" d="m892.75,646.28c-.82-.29-1.32-.76-1.51-1.4-.18-.64-.17-1.25.04-1.83.22-.63.6-1.12,1.14-1.47.54-.35,1.21-.39,2.04-.09l38.95,13.89c.73.26,1.24.66,1.53,1.2.3.54.3,1.22,0,2.05l-3.49,9.79c-.24.68-.69,1.62-1.34,2.83-.65,1.21-1.55,2.32-2.7,3.33-1.15,1.01-2.59,1.73-4.33,2.18-1.74.44-3.84.22-6.31-.65l-9.07-3.23c-2.76-.98-4.81-2.32-6.18-4-1.36-1.68-2.02-3.83-1.96-6.42l-11.69,1.39c-.57.07-1.07.01-1.49-.16-.43-.18-.75-.45-.98-.8-.23-.35-.38-.75-.44-1.18-.06-.43-.03-.84.11-1.23.15-.44.46-.84.93-1.22.46-.38,1.06-.6,1.79-.67l12.77-1.42,2.56-7.18-10.37-3.7Zm25.74,25.03c.44.16,1,.29,1.7.4.7.11,1.43.05,2.2-.2.77-.24,1.53-.74,2.28-1.47.75-.74,1.4-1.86,1.93-3.36l2.64-7.4-21.25-7.58-2.4,6.75c-.31.87-.55,1.78-.73,2.72-.17.95-.15,1.84.07,2.68.22.84.67,1.63,1.36,2.37.69.74,1.74,1.35,3.14,1.86l9.07,3.23Z"/>
    <path class="cls-2" d="m913.41,705.36c.74.36,1.18.86,1.33,1.5.15.64.09,1.24-.18,1.79s-.7.99-1.31,1.29c-.6.31-1.28.28-2.02-.08l-37.37-18.05c-.74-.36-1.18-.86-1.33-1.5-.15-.64-.08-1.25.2-1.83.28-.58.71-1.01,1.31-1.29.59-.28,1.26-.25,2,.11l37.37,18.05Z"/>
    <path class="cls-2" d="m848.82,735.59c-.7-.44-1.08-.98-1.16-1.63-.08-.65.05-1.24.38-1.76.25-.39.64-.73,1.19-1.03.55-.29,1.11-.41,1.68-.36,3.16.28,6.16.56,9.02.83,2.86.27,5.68.53,8.47.76,2.79.23,5.61.49,8.47.76,2.86.27,5.88.56,9.08.87l-25.97-16.27c-.7-.44-1.08-.98-1.16-1.63-.08-.65.06-1.26.42-1.83.33-.52.81-.9,1.44-1.14.63-.24,1.3-.14,2,.3l35.11,21.99c.56.35.89.8.98,1.34.09.54.03,1.06-.17,1.58-.2.51-.51.94-.94,1.28-.42.34-.87.49-1.32.44l-35.84-3.27,26.17,16.39c.7.44,1.08.98,1.16,1.63.08.65-.06,1.26-.42,1.83-.35.56-.85.97-1.48,1.21-.63.24-1.3.14-2-.3l-35.11-21.99Zm50.58,28.04c-.79-.38-1.3-.88-1.52-1.49-.22-.62-.21-1.22.03-1.8.24-.58.68-1.01,1.32-1.31.64-.3,1.42-.31,2.34-.03.16.04.37.06.63.08.26.01.5-.15.72-.5.25-.39.36-.85.36-1.37,0-.52-.06-1.08-.17-1.69-.08-.84-.11-1.69-.08-2.55.03-.86.31-1.73.86-2.6.57-.91,1.21-1.57,1.92-1.98.71-.41,1.42-.65,2.15-.74.72-.09,1.41-.07,2.05.06.64.13,1.19.28,1.64.43.73.28,1.22.73,1.46,1.37.24.63.27,1.26.1,1.88-.18.62-.55,1.11-1.11,1.48-.57.37-1.31.42-2.23.15-.25-.09-.53-.15-.85-.17-.32-.02-.55.08-.69.3-.19.3-.3.69-.32,1.16-.02.47,0,1,.06,1.58.05.88.05,1.81-.03,2.8-.07.98-.42,1.98-1.05,2.98-.49.78-1.08,1.35-1.76,1.72-.68.36-1.39.6-2.13.71-.74.11-1.43.12-2.09,0-.66-.11-1.2-.27-1.62-.47Z"/>
    <path class="cls-2" d="m857.61,775.1c3.58,3,5.53,6.17,5.85,9.49.33,3.32-1.01,6.77-4.02,10.35l-1.29,1.53c-2.97,3.54-6.13,5.44-9.48,5.71-3.35.27-6.81-1.09-10.38-4.1l-14.62-12.28c-1.61-1.35-2.86-2.84-3.75-4.46-.89-1.62-1.41-3.29-1.56-5.03-.15-1.74.07-3.48.67-5.22.6-1.75,1.57-3.43,2.92-5.04l1.29-1.53c1.39-1.65,2.89-2.92,4.51-3.81,1.62-.89,3.29-1.4,5-1.53,1.72-.13,3.45.1,5.2.7,1.75.59,3.42,1.57,5.04,2.92l14.62,12.28Zm-31.7-5.72c-1.78,2.12-2.57,4.29-2.36,6.52.21,2.22,1.36,4.21,3.44,5.96l14.62,12.28c4.64,3.9,8.86,3.58,12.65-.94l1.29-1.53c1.88-2.24,2.74-4.46,2.57-6.64-.17-2.19-1.4-4.24-3.68-6.16l-14.62-12.28c-2.16-1.82-4.36-2.59-6.6-2.32-2.24.27-4.25,1.46-6.03,3.58l-1.29,1.53Z"/>
  </g>
</svg>