<?xml version="1.0" encoding="UTF-8"?>
<svg id="Capa_1" data-name="Capa 1" xmlns="http://www.w3.org/2000/svg" viewBox="0 0 218 188">
  <defs>
    <style>
      .cls-1 {
        fill: #fff;
        stroke-width: 0px;
      }
    </style>
  </defs>
  <path class="cls-1" d="m188.43,88.44v12.42c-.49,2.93-.86,5.89-1.5,8.79-5.95,26.86-21.42,46.1-46.45,57.52-6.77,3.09-13.91,5.07-21.59,5.8v-62.08c5.68,0,11.14.06,16.6-.07.85-.02,2.31-.85,2.41-1.47,1.01-6.73,1.8-13.48,2.72-20.72h-21.64c0-6.24-.18-12.02.07-17.79.15-3.47,2.55-5.86,6.08-6.52,2.32-.44,4.72-.52,7.09-.59,2.96-.1,5.92-.02,8.87-.02v-20.47c-6.85,0-13.47-.32-20.05.07-12.61.75-21.41,7.72-23.97,19.99-1.44,6.88-1.01,14.17-1.28,21.28-.16,4.13-.03,4.14-4.24,4.14-4.92,0-9.84,0-14.71,0v22.37h18.72v61.35c-1.23-.2-2.23-.33-3.21-.54-14.41-3.04-26.86-9.79-37.74-19.67-26.24-23.84-32.85-65.74-15.11-96.42C56.53,26.38,86.9,10.93,120.54,15.98c29.99,4.51,50.93,21.6,62.27,49.73,2.89,7.17,3.8,15.13,5.62,22.73Z"/>
</svg>