<?xml version="1.0" encoding="UTF-8"?>
<svg id="Capa_1" data-name="Capa 1" xmlns="http://www.w3.org/2000/svg" viewBox="0 0 218 188">
  <defs>
    <style>
      .cls-1 {
        fill: #fff;
        stroke-width: 0px;
      }
    </style>
  </defs>
  <path class="cls-1" d="m109.1,173.43c-43.88,0-79.52-35.6-79.53-79.46-.01-43.73,35.73-79.44,79.46-79.4,43.91.05,79.42,35.72,79.39,79.73-.03,43.46-35.78,79.11-79.32,79.12Zm-.07-130.6c-7.29,0-14.59-.05-21.88,0-16.45.13-29.55,13.08-29.68,29.5-.12,14.72-.12,29.44,0,44.16.13,16.06,13.11,29.16,29.15,29.34,14.9.16,29.8.15,44.7,0,16.05-.17,29.06-13.24,29.19-29.29.13-14.77.13-29.53,0-44.3-.14-16.41-13.33-29.35-29.75-29.42-7.25-.03-14.5,0-21.74,0Z"/>
  <path class="cls-1" d="m109.07,52.6c7.16,0,14.32,0,21.47,0,11.92,0,20.46,8.51,20.46,20.4,0,14.54-.01,29.08,0,43.62.01,11.04-8.43,19.82-19.53,19.97-10.17.15-20.35.04-30.52.05-4.68,0-9.36.05-14.05-.01-9.96-.14-17.92-6.79-19.62-16.39-.23-1.28-.29-2.6-.29-3.9-.02-14.5-.02-28.99,0-43.49.01-11.72,8.59-20.25,20.34-20.25,7.25,0,14.5,0,21.74,0Zm-.15,68.74c14.76.04,26.77-11.87,26.82-26.6.05-14.83-11.86-26.84-26.67-26.91-14.7-.07-26.79,11.94-26.83,26.62-.03,14.86,11.86,26.85,26.67,26.89Zm33.93-54.44c.02-3.46-2.79-6.31-6.21-6.31-3.39,0-6.21,2.75-6.27,6.13-.07,3.45,2.71,6.32,6.16,6.36,3.48.04,6.3-2.71,6.33-6.17Z"/>
  <path class="cls-1" d="m108.96,111.9c-9.59-.01-17.28-7.77-17.26-17.4.03-9.49,7.85-17.26,17.34-17.22,9.54.04,17.26,7.78,17.26,17.29,0,9.62-7.72,17.34-17.34,17.33Z"/>
</svg>