<?xml version="1.0" encoding="UTF-8"?>
<svg id="Capa_1" data-name="Capa 1" xmlns="http://www.w3.org/2000/svg" viewBox="0 0 1080 1080">
  <defs>
    <style>
      .cls-1 {
        fill: #fdfae3;
        stroke-width: 0px;
      }
    </style>
  </defs>
  <g>
    <path class="cls-1" d="m193.82,70.02h-9.24c-1.56,0-2.82,1.27-2.82,2.82v47.18c0,1.56,1.27,2.82,2.82,2.82h9.24c1.56,0,2.82,1.27,2.82,2.82v6.12c0,1.56-1.27,2.82-2.82,2.82h-9.24c-1.56,0-2.82,1.27-2.82,2.82v47.26c0,1.56,1.27,2.82,2.82,2.82h9.24c1.56,0,2.82,1.27,2.82,2.82v6.12c0,1.56-1.27,2.82-2.82,2.82h-24.12c-1.56,0-2.82-1.27-2.82-2.82V61.08c0-1.56,1.27-2.82,2.82-2.82h24.12c1.56,0,2.82,1.27,2.82,2.82v6.12c0,1.56-1.27,2.82-2.82,2.82Z"/>
    <path class="cls-1" d="m316.57,105.27h-9.24c-1.56,0-2.82-1.27-2.82-2.82v-25.16c0-4.01-3.25-7.26-7.26-7.26h-.36c-4.01,0-7.26,3.25-7.26,7.26v3.18c0,4.84.87,9.65,2.57,14.18l24.62,65.56c1.7,4.53,2.57,9.34,2.57,14.18v4.74c0,11.14-9.03,20.17-20.17,20.17h-4.32c-11.14,0-20.17-9.03-20.17-20.17v-24.02c0-1.56,1.27-2.82,2.82-2.82h9.24c1.56,0,2.82,1.27,2.82,2.82v25.16c0,4.01,3.25,7.26,7.26,7.26h.36c4.01,0,7.26-3.25,7.26-7.26v-3.18c0-4.85-.87-9.65-2.57-14.18l-24.62-65.56c-1.7-4.53-2.57-9.34-2.57-14.18v-4.74c0-11.14,9.03-20.17,20.17-20.17h4.32c11.14,0,20.17,9.03,20.17,20.17v24.02c0,1.56-1.27,2.82-2.82,2.82Z"/>
    <path class="cls-1" d="m443.6,78.42v100.7c0,8.59-5.4,15.86-12.98,18.76-1.11.43-1.9,1.42-1.9,2.62v7.74c0,1.56-1.27,2.82-2.82,2.82h-9.24c-1.56,0-2.82-1.27-2.82-2.82v-7.74c0-1.19-.78-2.19-1.9-2.62-7.57-2.9-12.98-10.16-12.98-18.76v-100.7c0-11.14,9.03-20.17,20.17-20.17h4.32c11.14,0,20.17,9.03,20.17,20.17Zm-14.88-1.14c0-4.01-3.25-7.26-7.26-7.26h-.37c-4.01,0-7.26,3.25-7.26,7.26v102.98c0,4.01,3.25,7.26,7.26,7.26h.37c4.01,0,7.26-3.25,7.26-7.26v-102.98Z"/>
    <path class="cls-1" d="m555.76,58.25h9.24c1.56,0,2.82,1.27,2.82,2.82v118.05c0,11.14-9.03,20.17-20.17,20.17h-4.32c-11.14,0-20.17-9.03-20.17-20.17V61.08c0-1.56,1.27-2.82,2.82-2.82h9.24c1.56,0,2.82,1.27,2.82,2.82v119.19c0,4.01,3.25,7.26,7.26,7.26h.37c4.01,0,7.26-3.25,7.26-7.26V61.08c0-1.56,1.27-2.82,2.82-2.82Z"/>
    <path class="cls-1" d="m650.2,58.25h9.24c1.56,0,2.82,1.27,2.82,2.82v135.39c0,1.56-1.27,2.82-2.82,2.82h-9.24c-1.56,0-2.82-1.27-2.82-2.82V61.08c0-1.56,1.26-2.82,2.82-2.82Z"/>
    <path class="cls-1" d="m776.11,58.25h7.26c1.56,0,2.82,1.27,2.82,2.82v135.38c0,1.56-1.27,2.82-2.82,2.82h-9.68c-1.36,0-2.52-.97-2.78-2.3l-17.36-92.43c-.04-.19-.32-.16-.32.03v91.88c0,1.56-1.27,2.82-2.82,2.82h-7.26c-1.56,0-2.82-1.27-2.82-2.82V61.08c0-1.56,1.27-2.82,2.82-2.82h9.2c1.36,0,2.52.97,2.78,2.3l17.84,94.99c.04.19.32.16.32-.03V61.08c0-1.56,1.27-2.82,2.82-2.82Z"/>
    <path class="cls-1" d="m913.11,196.23c.15,1.65-1.16,3.07-2.82,3.07h-7.91c-1.47,0-2.69-1.12-2.82-2.58l-3.67-41.95c-.13-1.45-1.35-2.57-2.82-2.57h-8.95c-1.47,0-2.69,1.11-2.82,2.57l-3.67,41.95c-.13,1.46-1.35,2.58-2.82,2.58h-7.91c-1.66,0-2.96-1.42-2.82-3.07l11.5-131.34c.33-3.75,3.47-6.63,7.23-6.63h11.55c3.76,0,6.91,2.88,7.23,6.63l11.5,131.34Zm-18.75-58.87l-4.69-53.55s-.15-1.71-1.07-1.71-1.07,1.71-1.07,1.71l-4.69,53.55c-.15,1.64,1.16,3.07,2.82,3.07h5.89c1.66,0,2.96-1.42,2.82-3.07Z"/>
  </g>
  <g>
    <path class="cls-1" d="m271.27,370.39h-22.9c-3.92,0-7.1-3.18-7.1-7.1v-62.64c0-10.01-8.1-18.12-18.12-18.12h-.88c-10.01,0-18.12,8.1-18.12,18.12v256.69c0,10.02,8.1,18.12,18.12,18.12h.88c10.02,0,18.12-8.1,18.12-18.12v-62.64c0-3.92,3.18-7.1,7.1-7.1h22.9c3.92,0,7.1,3.18,7.1,7.1v59.95c0,27.71-22.46,50.15-50.15,50.15h-11.02c-27.71,0-50.15-22.46-50.15-50.15v-251.3c0-27.71,22.46-50.15,50.15-50.15h11.02c27.69,0,50.15,22.46,50.15,50.15v59.94c0,3.92-3.18,7.1-7.1,7.1Z"/>
    <path class="cls-1" d="m419.37,597.14c.36,4.1-2.9,7.64-7.02,7.64h-19.73c-3.66,0-6.7-2.79-7.02-6.44l-9.15-104.57c-.32-3.62-3.36-6.42-7.02-6.42h-22.3c-3.66,0-6.7,2.78-7.02,6.42l-9.15,104.57c-.32,3.64-3.36,6.44-7.02,6.44h-19.73c-4.14,0-7.38-3.54-7.02-7.64l28.66-327.42c.82-9.35,8.65-16.53,18.02-16.53h28.8c9.37,0,17.21,7.18,18.02,16.53l28.68,327.42Zm-46.73-146.76l-11.68-133.48s-.36-4.26-2.67-4.26-2.67,4.26-2.67,4.26l-11.68,133.48c-.36,4.1,2.9,7.64,7.02,7.64h14.68c4.14,0,7.38-3.54,7.02-7.64Z"/>
    <path class="cls-1" d="m535.99,253.2h18.1c3.88,0,7.04,3.16,7.04,7.04v337.49c0,3.88-3.16,7.04-7.04,7.04h-24.13c-3.38,0-6.29-2.41-6.92-5.73l-43.27-230.41c-.1-.48-.8-.4-.8.08v229.04c0,3.88-3.16,7.04-7.04,7.04h-18.1c-3.88,0-7.04-3.16-7.04-7.04v-337.51c0-3.88,3.16-7.04,7.04-7.04h22.94c3.38,0,6.29,2.41,6.92,5.73l44.46,236.8c.1.48.8.4.8-.08v-235.42c0-3.88,3.16-7.04,7.04-7.04Z"/>
    <path class="cls-1" d="m655.01,282.53h-23.03c-3.88,0-7.04,3.16-7.04,7.04v117.62c0,3.88,3.16,7.04,7.04,7.04h23.03c3.88,0,7.04,3.16,7.04,7.04v15.26c0,3.88-3.16,7.04-7.04,7.04h-23.03c-3.88,0-7.04,3.16-7.04,7.04v117.8c0,3.88,3.16,7.04,7.04,7.04h23.03c3.88,0,7.04,3.16,7.04,7.04v15.26c0,3.88-3.16,7.04-7.04,7.04h-60.13c-3.88,0-7.04-3.16-7.04-7.04v-337.51c0-3.88,3.16-7.04,7.04-7.04h60.13c3.88,0,7.04,3.16,7.04,7.04v15.26c0,3.88-3.16,7.04-7.04,7.04Z"/>
    <path class="cls-1" d="m733.37,575.44h23.03c3.88,0,7.04,3.16,7.04,7.04v15.26c0,3.88-3.16,7.04-7.04,7.04h-60.13c-3.88,0-7.04-3.16-7.04-7.04v-337.51c0-3.88,3.16-7.04,7.04-7.04h23.02c3.88,0,7.04,3.16,7.04,7.04v308.17c0,3.9,3.16,7.04,7.04,7.04Z"/>
    <path class="cls-1" d="m912.81,597.14c.36,4.1-2.9,7.64-7.02,7.64h-19.73c-3.66,0-6.7-2.79-7.02-6.44l-9.15-104.57c-.32-3.62-3.36-6.42-7.02-6.42h-22.3c-3.66,0-6.7,2.78-7.02,6.42l-9.15,104.57c-.32,3.64-3.36,6.44-7.02,6.44h-19.73c-4.14,0-7.38-3.54-7.02-7.64l28.66-327.42c.82-9.35,8.65-16.53,18.02-16.53h28.8c9.37,0,17.21,7.18,18.02,16.53l28.68,327.42Zm-46.73-146.76l-11.68-133.48s-.36-4.26-2.67-4.26-2.67,4.26-2.67,4.26l-11.68,133.48c-.36,4.1,2.9,7.64,7.02,7.64h14.68c4.14,0,7.38-3.54,7.02-7.64Z"/>
  </g>
  <g>
    <path class="cls-1" d="m802.06,692.62l-9.45,41.32c-.28,1.2.38,2.43,1.54,2.86l2.44.91c1.32.49,2.78-.22,3.21-1.57l12.34-39.03c.34-1.09-.1-2.27-1.08-2.85l-5.32-3.19c-1.44-.86-3.29-.07-3.67,1.56Z"/>
    <path class="cls-1" d="m821.06,810.1c-10.26,16.22-41.28,63.47-52.67,59.95-13.5-4.17-7.35-33.28-5.56-40.65.25-1.03.99-1.87,1.99-2.24,8.03-2.95,44.03-17.81,33.43-43.5-8.91-21.59-33.78,11.79-40.84,26.12-1.92,3.89-4.69,7.28-8.14,9.9-11.53,8.76-37.27,27.83-37.55,23.63-1.49-22.69,20.29-129.13,29.38-162.25,6.55-23.87,7.71-37.28,7.84-42.91.04-1.76-1.41-3.19-3.17-3.15-2.93.06-7.67.22-13.11.61-7.81.56-27.05,131.8-32.31,168.72-.91,6.36-2.92,12.5-5.96,18.16l-14,26.13c-1.41,3.01-4.31,5.02-7.62,5.31-5.96.52-14.86.78-16.09-2.07-1.84-4.23,3.38-34.1,6.46-50.41,1.9-10.09-2.53-20.55-11.46-25.61-10.37-5.88-23.88-2.94-46.96,28.78-85.09,117-213.6,227.13-282.05,202.74-73.37-26.15-46.58-166.88-46.58-166.88,0,0,30.58-165.26,152.64-227.73,78.02-39.94,54.65,46.5,51.54,57.09-.2.69-.18,1.44.1,2.1,5.17,12.61,14.09,15.6,19.68,11.18,4.94-3.92,11.68-28.96,13.45-35.82.24-.94.93-1.65,1.81-2.06,2.26-1.04,5.8-5.39-2.15-23.6-31.96-73.25-96.58-29.1-145.65,10.58-53.17,42.99-82.1,116.01-92.68,142.03-2.7,6.63-44.21,136.41-1.3,206.51,40.84,66.72,109.18,42.81,182.56-6.54,59.93-40.3,116.3-111.7,134.96-136.52,1.85-2.46,5.72-1.12,5.73,1.95.05,22.84,12.79,23.59,19.64,19.03,4.91-3.28,15.6-19.04,22.82-30.23,1.79-2.78,6.09-1.33,5.85,1.97-.8,11.03-.97,25.95,2.89,33.39,6.26,12.08,18.13,8.37,24.51,5.19,2.96-1.48,6.46-1.37,9.37.2l6.54,3.52c3.1,1.67,4.96,4.97,4.77,8.49-.71,13.16-2.24,47-1.41,80.66,1.05,42.63,15.52,58.35,26.46,55.21,36.34-10.43,7.79-104.41-7.55-128.7-2.25-3.56-3.71-9.88-3.27-14.07l2.13-20.27c.13-1.2.92-2.2,2.04-2.64,15.18-5.9,29.49-15.5,37.45-21.34,2.3-1.68,5.48.25,5.04,3.06-7.7,48.43,13.6,47.06,21.56,43.22,16.14-7.78,49.97-57.3,51.27-63.8.01-.07.03-.13.04-.19.64-3.42-3.98-5.17-5.85-2.23Zm-40.2-13.75s-1.52,14.89-4.82,14.55c-2.86-.29,4.46-20.31,4.82-14.55Zm-165.2,40.58c-.18.2-.49.01-.42-.24,1.96-6.8,13.47-44.56,26.67-43.72,11.82.75-20.94,38.02-26.25,43.97Zm78.64,29.12c0,.07-.07.12-.14.09l-7.06-3.48c-.07-.03-.07-.13,0-.17l7.06-4.11c.06-.04.14,0,.14.08v7.58Zm1.48-13.13c0,.21-.17.38-.38.38h-7.89c-.27,0-.46-.28-.35-.53l7.24-16.66,1.37-3.25v20.06Zm26.88,81.72c4.11,12.64,13.21,79.6-8.22,72.38-22.05-7.43-8.24-115.05-8.24-115.05,0,0,12.35,30.03,16.46,42.67Z"/>
  </g>
</svg>